HIERARCHY
ROOT Hips
{
	OFFSET 0.000000 0.000000 0.000000
	CHANNELS 6 Xposition Yposition Zposition Xrotation Yrotation Zrotation
	JOINT LeftUpLeg_virtual
	{
		OFFSET 0.000000 0.000000 0.000000
		CHANNELS 3 Xrotation Yrotation Zrotation
		JOINT LeftUpLeg
		{
			OFFSET 15.427100 -6.655098 0.678600
			CHANNELS 3 Xrotation Yrotation Zrotation
			JOINT LeftLeg
			{
				OFFSET 4.081073 -39.591068 13.024000
				CHANNELS 3 Xrotation Yrotation Zrotation
				JOINT LeftFoot
				{
					OFFSET -4.081074 -37.707932 -15.979700
					CHANNELS 3 Xrotation Yrotation Zrotation
					JOINT LeftToeBase
					{
						OFFSET 5.346399 -15.068900 20.645000
						CHANNELS 3 Xrotation Yrotation Zrotation
						JOINT LeftToe_End
						{
							OFFSET 2.754700 0.931300 11.300900
							CHANNELS 3 Xrotation Yrotation Zrotation
							End Site
							{
								OFFSET 0 0 0
							}
						}
					}
				}
			}
		}
	}
	JOINT RightUpLeg_virtual
	{
		OFFSET 0.000000 0.000000 0.000000
		CHANNELS 3 Xrotation Yrotation Zrotation
		JOINT RightUpLeg
		{
			OFFSET -15.569500 -6.655098 0.678600
			CHANNELS 3 Xrotation Yrotation Zrotation
			JOINT RightLeg
			{
				OFFSET -4.081825 -39.591045 13.023800
				CHANNELS 3 Xrotation Yrotation Zrotation
				JOINT RightFoot
				{
					OFFSET 4.081824 -37.707954 -15.979600
					CHANNELS 3 Xrotation Yrotation Zrotation
					JOINT RightToeBase
					{
						OFFSET -5.346400 -15.068900 20.645000
						CHANNELS 3 Xrotation Yrotation Zrotation
						JOINT RightToe_End
						{
							OFFSET -2.754700 0.931300 11.300900
							CHANNELS 3 Xrotation Yrotation Zrotation
							End Site
							{
								OFFSET 0 0 0
							}
						}
					}
				}
			}
		}
	}
	JOINT Spine_virtual
	{
		OFFSET 0.000000 0.000000 0.000000
		CHANNELS 3 Xrotation Yrotation Zrotation
		JOINT Spine
		{
			OFFSET -0.279200 12.230698 -2.892100
			CHANNELS 3 Xrotation Yrotation Zrotation
			JOINT Spine1
			{
				OFFSET -0.232667 10.192268 -1.242267
				CHANNELS 3 Xrotation Yrotation Zrotation
				JOINT Spine1_split
				{
					OFFSET -0.232667 10.192268 -1.242267
					CHANNELS 3 Xrotation Yrotation Zrotation
					JOINT Spine2
					{
						OFFSET -0.232667 10.192268 -1.242267
						CHANNELS 3 Xrotation Yrotation Zrotation
						JOINT Neck_virtual
						{
							OFFSET 0.000000 0.000000 0.000000
							CHANNELS 3 Xrotation Yrotation Zrotation
							JOINT Neck
							{
								OFFSET -0.418800 17.814194 8.416900
								CHANNELS 3 Xrotation Yrotation Zrotation
								JOINT Head
								{
									OFFSET 0.000000 7.031097 3.806800
									CHANNELS 3 Xrotation Yrotation Zrotation
									JOINT HeadTop_End
									{
										OFFSET 0.000000 24.646606 12.978600
										CHANNELS 3 Xrotation Yrotation Zrotation
										End Site
										{
											OFFSET 0 0 0
										}
									}
								}
							}
						}
						JOINT LeftShoulder_virtual
						{
							OFFSET 0.000000 0.000000 0.000000
							CHANNELS 3 Xrotation Yrotation Zrotation
							JOINT LeftShoulder
							{
								OFFSET 8.476499 7.247704 -3.868750
								CHANNELS 3 Xrotation Yrotation Zrotation
								JOINT LeftShoulder_split
								{
									OFFSET 8.476499 7.247704 -3.868750
									CHANNELS 3 Xrotation Yrotation Zrotation
									JOINT LeftArm
									{
										OFFSET 9.308998 -2.777710 0.208600
										CHANNELS 3 Xrotation Yrotation Zrotation
										JOINT LeftForeArm
										{
											OFFSET 29.972298 0.000000 0.000000
											CHANNELS 3 Xrotation Yrotation Zrotation
											JOINT LeftHand
											{
												OFFSET 26.026505 0.000000 0.000000
												CHANNELS 3 Xrotation Yrotation Zrotation
												End Site
												{
													OFFSET 0 0 0
												}
											}
										}
									}
								}
							}
						}
						JOINT RightShoulder_virtual
						{
							OFFSET 0.000000 0.000000 0.000000
							CHANNELS 3 Xrotation Yrotation Zrotation
							JOINT RightShoulder
							{
								OFFSET -7.570500 7.247704 -3.868750
								CHANNELS 3 Xrotation Yrotation Zrotation
								JOINT RightShoulder_split
								{
									OFFSET -7.570500 7.247704 -3.868750
									CHANNELS 3 Xrotation Yrotation Zrotation
									JOINT RightArm
									{
										OFFSET -9.308998 -2.777710 0.208500
										CHANNELS 3 Xrotation Yrotation Zrotation
										JOINT RightForeArm
										{
											OFFSET -29.972300 0.000000 0.000000
											CHANNELS 3 Xrotation Yrotation Zrotation
											JOINT RightHand
											{
												OFFSET -26.026505 0.000000 0.000000
												CHANNELS 3 Xrotation Yrotation Zrotation
												End Site
												{
													OFFSET 0 0 0
												}
											}
										}
									}
								}
							}
						}
					}
				}
			}
		}
	}
}
MOTION
Frames: 10
Frame Time: 0.03333333
1.026959 96.172874 -2.170952 0.000000 0.000000 0.000000 2.912723 -28.996731 0.976968 -13.781155 18.267737 13.063093 14.409864 11.475425 -1.668999 -2.229707 -2.509538 -7.542705 -0.131852 -0.014305 -0.311712 0.000000 0.000000 0.000000 2.912723 -28.996731 0.976968 -8.431165 -1.525379 -8.449445 11.008290 9.446784 0.847146 -5.766885 -0.831638 6.905349 -1.288155 -0.019888 0.149891 0.000000 0.000000 0.000000 2.912723 -28.996731 0.976968 7.837295 -0.326203 -2.471952 1.099252 -0.880569 2.383464 0.000000 0.000000 0.000000 0.000000 0.000000 0.000000 1.108680 -0.590455 2.446366 -3.842072 18.019060 -6.496395 -6.332478 13.021553 0.301482 0.000000 0.000000 0.000000 1.108680 -0.590455 2.446366 -0.057392 -8.759444 -0.061010 0.000000 0.000000 0.000000 -55.249752 0.330148 -41.449905 11.585985 -65.829554 13.007194 0.000000 0.000000 0.000000 1.108680 -0.590455 2.446366 4.849289 7.760148 5.560446 0.000000 0.000000 0.000000 -0.933505 -2.176868 61.845655 11.299278 18.943437 -3.987519 0.000000 0.000000 0.000000 
1.175917 95.972992 -2.402245 0.000000 0.000000 0.000000 3.001703 -28.719818 0.935437 -14.471766 18.209851 13.420074 15.179278 12.468222 -1.631334 -2.448273 -3.884085 -7.746970 -0.131845 -0.014308 -0.311710 0.000000 0.000000 0.000000 3.001703 -28.719818 0.935437 -8.850983 -1.595263 -8.428483 11.570590 9.049540 0.729648 -6.008291 -0.831425 6.994719 -1.322979 -0.015835 -0.028570 0.000000 0.000000 0.000000 3.001703 -28.719818 0.935437 7.766597 -0.317946 -2.479161 1.051471 -0.856363 2.346641 0.000000 0.000000 0.000000 0.000000 0.000000 0.000000 1.060735 -0.578902 2.409568 -4.035129 18.103348 -6.236031 -6.261313 13.166569 0.315301 0.000000 0.000000 0.000000 1.060735 -0.578902 2.409568 -0.095207 -7.833567 -0.261093 0.000000 0.000000 0.000000 -55.289070 1.044021 -40.597558 10.451569 -65.790390 11.849371 0.000000 0.000000 0.000000 1.060735 -0.578902 2.409568 4.852103 7.875474 5.834439 0.000000 0.000000 0.000000 -0.731461 -2.101497 61.529985 11.542490 18.958857 -4.028586 0.000000 0.000000 0.000000 
1.376483 95.725418 -2.578327 0.000000 0.000000 0.000000 3.072906 -28.272619 0.806052 -15.439076 18.245795 13.579622 15.980156 11.715457 -1.656448 -2.601691 -3.773686 -7.401084 -0.131850 -0.014305 -0.311713 0.000000 0.000000 0.000000 3.072906 -28.272619 0.806052 -9.191281 -1.851122 -8.364094 12.180019 8.499674 0.492367 -6.349151 -0.811907 7.265300 -1.406018 -0.015860 -0.454341 0.000000 0.000000 0.000000 3.072906 -28.272619 0.806052 7.670737 -0.262541 -2.384278 1.024543 -0.785728 2.316041 0.000000 0.000000 0.000000 0.000000 0.000000 0.000000 1.032501 -0.513467 2.374549 -4.234202 18.653812 -6.061269 -6.174077 13.712730 0.322351 0.000000 0.000000 0.000000 1.032501 -0.513467 2.374549 -0.121055 -6.796872 -0.488154 0.000000 0.000000 0.000000 -55.142945 2.029469 -39.651714 9.135383 -66.083836 10.497873 0.000000 0.000000 0.000000 1.032501 -0.513467 2.374549 4.835492 8.084642 5.913527 0.000000 0.000000 0.000000 -0.348451 -2.133825 61.427122 11.793703 19.189416 -4.098404 0.000000 0.000000 0.000000 
1.588351 95.504128 -2.718800 0.000000 0.000000 0.000000 3.198480 -27.763544 0.686584 -16.375981 18.327052 13.836932 16.790234 11.774812 -1.626938 -2.825960 -4.589568 -7.260208 -0.131844 -0.014308 -0.311711 0.000000 0.000000 0.000000 3.198480 -27.763544 0.686584 -9.489196 -2.168957 -8.296203 12.681179 7.896307 0.214892 -6.661282 -0.782996 7.623386 -1.534581 -0.015387 -0.895376 0.000000 0.000000 0.000000 3.198480 -27.763544 0.686584 7.559460 -0.186203 -2.243558 0.981918 -0.683670 2.257198 0.000000 0.000000 0.000000 0.000000 0.000000 0.000000 0.988249 -0.419407 2.309414 -4.421088 20.029632 -5.825417 -6.024798 15.108063 -0.003514 0.000000 0.000000 0.000000 0.988249 -0.419407 2.309414 -0.137810 -5.281937 -0.732836 0.000000 0.000000 0.000000 -55.099744 2.847248 -38.843180 8.517998 -66.232221 9.832266 0.000000 0.000000 0.000000 0.988249 -0.419407 2.309414 4.823355 8.325181 6.084431 0.000000 0.000000 0.000000 0.027492 -1.981523 61.197361 11.923162 19.091927 -4.012289 0.000000 0.000000 0.000000 
1.840811 95.260612 -2.747467 0.000000 0.000000 0.000000 3.312843 -27.140885 0.650102 -17.229497 18.458332 13.899883 17.605475 11.791385 -1.586754 -3.129865 -5.468515 -7.053562 -0.131851 -0.014309 -0.311713 0.000000 0.000000 0.000000 3.312843 -27.140885 0.650102 -9.712485 -2.407691 -8.436588 13.243592 7.249436 -0.018367 -7.087876 -0.805364 8.063759 -1.725664 -0.013249 -1.074977 0.000000 0.000000 0.000000 3.312843 -27.140885 0.650102 7.386410 -0.046154 -2.169204 0.964205 -0.486272 2.231982 0.000000 0.000000 0.000000 0.000000 0.000000 0.000000 0.968518 -0.229716 2.272019 -3.954008 22.754343 -5.876479 -6.536041 17.880604 -1.009382 0.000000 0.000000 0.000000 0.968518 -0.229716 2.272019 -0.097633 -3.831649 -0.993992 0.000000 0.000000 0.000000 -55.094956 4.077396 -37.778504 9.204529 -66.373210 10.434360 0.000000 0.000000 0.000000 0.968518 -0.229716 2.272019 4.816400 8.501682 6.229784 0.000000 0.000000 0.000000 0.563629 -1.726074 61.017317 12.505172 19.261122 -4.145834 0.000000 0.000000 0.000000 
2.169376 95.045959 -2.634453 0.000000 0.000000 0.000000 3.405158 -26.459031 0.645888 -17.902920 18.614723 13.764628 18.330191 11.795292 -1.535252 -3.497124 -6.343167 -6.772585 -0.131848 -0.014311 -0.311713 0.000000 0.000000 0.000000 3.405158 -26.459031 0.645888 -9.758640 -2.470170 -8.779218 13.651235 6.639980 -0.121423 -7.495744 -0.910440 8.549438 -1.805947 -0.012156 -1.150044 0.000000 0.000000 0.000000 3.405158 -26.459031 0.645888 7.192152 0.155250 -2.015808 0.959413 -0.205215 2.170834 0.000000 0.000000 0.000000 0.000000 0.000000 0.000000 0.961659 0.039521 2.194105 -3.267897 27.049252 -6.285114 -6.758910 22.038434 -2.081235 0.000000 0.000000 0.000000 0.961659 0.039521 2.194105 -0.049787 -2.182468 -1.260932 0.000000 0.000000 0.000000 -54.297801 5.181456 -35.736076 6.714848 -67.007134 7.904488 0.000000 0.000000 0.000000 0.961659 0.039521 2.194105 4.802321 8.780399 6.545477 0.000000 0.000000 0.000000 0.892054 -1.910167 60.669702 12.855435 19.314520 -4.255114 0.000000 0.000000 0.000000 
2.544835 94.836777 -2.401794 0.000000 0.000000 0.000000 3.549912 -25.583672 0.727901 -18.521685 18.747792 13.409377 18.990149 11.715787 -1.482710 -3.891542 -7.229471 -6.389858 -0.131855 -0.014308 -0.311714 0.000000 0.000000 0.000000 3.549912 -25.583672 0.727901 -9.852837 -2.706619 -9.250673 14.240834 5.853555 -0.387777 -7.896955 -1.002967 9.246921 -2.255082 0.000430 -1.375990 0.000000 0.000000 0.000000 3.549912 -25.583672 0.727901 6.923152 0.387167 -1.870576 0.952017 0.138011 2.082962 0.000000 0.000000 0.000000 0.000000 0.000000 0.000000 0.953014 0.366744 2.086825 -2.099968 31.694629 -7.091460 -6.992626 26.565988 -3.468476 0.000000 0.000000 0.000000 0.953014 0.366744 2.086825 0.036096 -0.371897 -1.530129 0.000000 0.000000 0.000000 -53.465488 6.524814 -33.706772 4.056217 -67.682831 5.227642 0.000000 0.000000 0.000000 0.953014 0.366744 2.086825 4.778745 9.110165 6.822620 0.000000 0.000000 0.000000 1.126980 -2.293092 60.418276 12.886392 18.974067 -4.221341 0.000000 0.000000 0.000000 
2.955175 94.460442 -2.052879 0.000000 0.000000 0.000000 3.654358 -24.293639 1.000477 -19.180489 18.825226 12.708620 19.923669 11.419328 -1.459010 -4.441862 -8.172470 -5.868814 -0.131853 -0.017831 -0.311721 0.000000 0.000000 0.000000 3.654358 -24.293639 1.000477 -10.223098 -3.167363 -10.267213 15.644581 5.110248 -0.368232 -8.512849 -1.144670 9.854991 -3.024540 0.009280 -1.618528 0.000000 0.000000 0.000000 3.654358 -24.293639 1.000477 6.663588 0.652649 -1.883875 1.005791 0.560592 1.966752 0.000000 0.000000 0.000000 0.000000 0.000000 0.000000 1.006189 0.771803 1.948117 -0.699922 36.393065 -8.680033 -7.223325 30.833813 -4.043213 0.000000 0.000000 0.000000 1.006189 0.771803 1.948117 0.074866 1.599837 -1.831797 0.000000 0.000000 0.000000 -52.669706 8.047834 -31.831772 2.879473 -68.758674 3.972150 0.000000 0.000000 0.000000 1.006189 0.771803 1.948117 4.751155 9.365992 6.713110 0.000000 0.000000 0.000000 1.295326 -2.883076 60.748625 12.566789 18.459643 -4.151114 0.000000 0.000000 0.000000 
3.476145 93.870781 -1.623383 0.000000 0.000000 0.000000 3.648293 -22.677027 1.243615 -20.005149 18.755689 11.889916 21.386012 10.942229 -1.471437 -5.248856 -9.108548 -5.210781 -0.131855 -0.020910 -0.311728 0.000000 0.000000 0.000000 3.648293 -22.677027 1.243615 -10.815762 -3.828669 -11.409163 17.939656 4.270439 -0.372104 -9.628626 -1.315745 9.938685 -3.501396 -0.025829 -1.627504 0.000000 0.000000 0.000000 3.648293 -22.677027 1.243615 6.510757 1.001349 -1.789619 1.044832 1.102456 1.783089 0.000000 0.000000 0.000000 0.000000 0.000000 0.000000 1.047442 1.291393 1.736219 0.954881 39.773503 -10.366775 -7.612471 33.988442 -4.766990 0.000000 0.000000 0.000000 1.047442 1.291393 1.736219 0.125924 3.222989 -2.278839 0.000000 0.000000 0.000000 -52.272227 9.680969 -30.010314 3.860587 -70.028782 4.778411 0.000000 0.000000 0.000000 1.047442 1.291393 1.736219 4.732742 9.501066 6.421024 0.000000 0.000000 0.000000 1.729262 -3.747978 61.308236 11.955946 17.907228 -4.053603 0.000000 0.000000 0.000000 
3.999694 93.010574 -1.166553 0.000000 0.000000 0.000000 3.563106 -20.597023 1.455952 -21.140078 18.484085 11.044679 23.449504 10.191738 -1.538181 -6.259322 -10.052949 -4.430596 -0.131855 -0.023644 -0.311736 0.000000 0.000000 0.000000 3.563106 -20.597023 1.455952 -12.136244 -4.707926 -12.483174 22.001743 3.208933 -0.818190 -10.864989 -1.630348 9.700166 -4.925550 -0.151174 -0.741815 0.000000 0.000000 0.000000 3.563106 -20.597023 1.455952 6.421635 1.339987 -1.700189 1.148432 1.634881 1.606324 0.000000 0.000000 0.000000 0.000000 0.000000 0.000000 1.156429 1.801689 1.533034 1.952586 41.529879 -11.682350 -7.592403 35.537587 -5.379379 0.000000 0.000000 0.000000 1.156429 1.801689 1.533034 0.218356 4.934608 -2.975159 0.000000 0.000000 0.000000 -52.429830 11.738902 -28.152684 6.366021 -71.928230 7.103041 0.000000 0.000000 0.000000 1.156429 1.801689 1.533034 4.701606 9.797366 6.095316 0.000000 0.000000 0.000000 2.204415 -4.829281 61.953627 11.536471 17.788784 -4.235789 0.000000 0.000000 0.000000 
